<svg width="27" height="35" viewBox="0 0 27 35" fill="none" xmlns="http://www.w3.org/2000/svg">
<path d="M15 2C11.5538 2 8.75 4.243 8.75 7V10H7.5C6.83696 10 6.20107 10.2107 5.73223 10.5858C5.26339 10.9609 5 11.4696 5 12V20C5 20.5304 5.26339 21.0391 5.73223 21.4142C6.20107 21.7893 6.83696 22 7.5 22H22.5C23.163 22 23.7989 21.7893 24.2678 21.4142C24.7366 21.0391 25 20.5304 25 20V12C25 11.4696 24.7366 10.9609 24.2678 10.5858C23.7989 10.2107 23.163 10 22.5 10H21.25V7C21.25 4.243 18.4462 2 15 2ZM11.25 7C11.25 5.346 12.9325 4 15 4C17.0675 4 18.75 5.346 18.75 7V10H11.25V7ZM16.25 17.723V20H13.75V17.723C13.313 17.5228 12.9621 17.2213 12.7435 16.8584C12.525 16.4954 12.4491 16.0879 12.5259 15.6898C12.6026 15.2916 12.8284 14.9214 13.1735 14.6279C13.5185 14.3345 13.9666 14.1316 14.4588 14.046C14.8243 13.9813 15.2033 13.9832 15.5678 14.0513C15.9323 14.1194 16.2731 14.2521 16.565 14.4397C16.8569 14.6272 17.0924 14.8647 17.2542 15.1348C17.416 15.4049 17.5 15.7005 17.5 16C17.4993 16.3497 17.3834 16.6932 17.1639 16.9956C16.9445 17.2981 16.6292 17.549 16.25 17.723Z" fill="white"/>
</svg>
