<svg width="290" height="159" viewBox="0 0 290 159" fill="none" xmlns="http://www.w3.org/2000/svg">
<rect x="61" width="168" height="55" fill="#213140"/>
<rect x="228.932" y="158.177" width="168" height="55" transform="rotate(-179.879 228.932 158.177)" fill="#213140"/>
<rect x="76" y="11" width="12" height="12" fill="white"/>
<rect x="213.956" y="147.145" width="12" height="12" transform="rotate(-179.879 213.956 147.145)" fill="white"/>
<rect x="101" y="11" width="12" height="12" fill="white"/>
<rect x="188.956" y="147.093" width="12" height="12" transform="rotate(-179.879 188.956 147.093)" fill="#F5F5F5"/>
<rect x="126" y="11" width="12" height="12" fill="white"/>
<rect x="163.956" y="147.04" width="12" height="12" transform="rotate(-179.879 163.956 147.04)" fill="#F5F5F5"/>
<rect x="151" y="11" width="12" height="12" fill="white"/>
<rect x="138.956" y="146.987" width="12" height="12" transform="rotate(-179.879 138.956 146.987)" fill="#F5F5F5"/>
<rect x="176" y="11" width="12" height="12" fill="white"/>
<rect x="113.956" y="146.935" width="12" height="12" transform="rotate(-179.879 113.956 146.935)" fill="#F5F5F5"/>
<rect x="201" y="11" width="12" height="12" fill="white"/>
<rect x="88.9559" y="146.882" width="12" height="12" transform="rotate(-179.879 88.9559 146.882)" fill="#F5F5F5"/>
<rect x="25" y="50" width="240" height="5" fill="#213140"/>
<rect x="25" y="103" width="240" height="5" fill="#213140"/>
<path d="M14.5175 67.515H20.3625L29.795 81.725H29.41V67.515H35.01V91H29.6025L19.19 75.39H20.1175V91H14.5175V67.515ZM60.017 91.56C57.7887 91.56 55.8403 91.0933 54.172 90.16C52.5153 89.215 51.2262 87.8267 50.3045 85.995C49.3828 84.1517 48.922 81.8825 48.922 79.1875C48.922 76.4225 49.3828 74.1417 50.3045 72.345C51.2262 70.5367 52.5153 69.195 54.172 68.32C55.8403 67.4333 57.7887 66.99 60.017 66.99C62.2687 66.99 64.2287 67.4508 65.897 68.3725C67.577 69.2942 68.8778 70.6592 69.7995 72.4675C70.7212 74.2758 71.182 76.5158 71.182 79.1875C71.182 81.9292 70.7212 84.2217 69.7995 86.065C68.8778 87.8967 67.577 89.2733 65.897 90.195C64.2287 91.105 62.2687 91.56 60.017 91.56ZM60.017 86.5375C61.6503 86.5375 62.957 85.8958 63.937 84.6125C64.917 83.3175 65.407 81.4975 65.407 79.1525C65.407 76.9475 64.917 75.2092 63.937 73.9375C62.957 72.6542 61.6503 72.0125 60.017 72.0125C58.4303 72.0125 57.147 72.6542 56.167 73.9375C55.187 75.2092 54.697 76.9592 54.697 79.1875C54.697 81.5092 55.187 83.3175 56.167 84.6125C57.147 85.8958 58.4303 86.5375 60.017 86.5375ZM93.9044 91.56C92.2244 91.56 90.6669 91.28 89.2319 90.72C87.7969 90.1483 86.6302 89.2617 85.7319 88.06C84.8335 86.8467 84.3377 85.2717 84.2444 83.335H89.7744C89.7744 84.0467 89.9552 84.6358 90.3169 85.1025C90.6785 85.5692 91.1685 85.9133 91.7869 86.135C92.4169 86.3567 93.111 86.4675 93.8694 86.4675C94.476 86.4675 95.0419 86.415 95.5669 86.31C96.1035 86.205 96.5352 86.0183 96.8619 85.75C97.1885 85.4817 97.3519 85.1142 97.3519 84.6475C97.3519 84.0758 97.1769 83.65 96.8269 83.37C96.4885 83.09 95.8702 82.7692 94.9719 82.4075L89.8619 80.185C88.1819 79.4617 86.8752 78.61 85.9419 77.63C85.0085 76.65 84.5419 75.3142 84.5419 73.6225C84.5419 71.6392 85.3469 70.0408 86.9569 68.8275C88.5785 67.6025 90.7952 66.99 93.6069 66.99C96.4652 66.99 98.6585 67.6667 100.187 69.02C101.715 70.3617 102.573 72.2808 102.759 74.7775H97.2644C97.1244 74.0075 96.7802 73.36 96.2319 72.835C95.6952 72.31 94.8202 72.0475 93.6069 72.0475C92.7319 72.0475 92.026 72.2108 91.4894 72.5375C90.9527 72.8525 90.6844 73.2492 90.6844 73.7275C90.6844 74.1708 90.8535 74.5208 91.1919 74.7775C91.5419 75.0342 92.061 75.3142 92.7494 75.6175L98.1569 77.91C99.9535 78.6917 101.289 79.6075 102.164 80.6575C103.051 81.7075 103.494 82.9675 103.494 84.4375C103.494 86.0125 103.115 87.3308 102.357 88.3925C101.61 89.4425 100.519 90.2358 99.0844 90.7725C97.661 91.2975 95.9344 91.56 93.9044 91.56ZM115.269 72.3625V67.515H134.606V72.3625H126.504L127.764 71.1025V91H122.164V71.1025L123.424 72.3625H115.269ZM147.206 91V67.515H156.376C159.316 67.515 161.596 68.1917 163.218 69.545C164.851 70.8867 165.668 72.6892 165.668 74.9525C165.668 77.1692 164.851 78.9483 163.218 80.29C161.596 81.62 159.316 82.285 156.376 82.285H152.806V91H147.206ZM159.456 91L153.733 79.66H159.648L166.788 91H159.456ZM152.806 78.645H155.746C157.134 78.645 158.172 78.3592 158.861 77.7875C159.561 77.2042 159.911 76.4633 159.911 75.565C159.911 74.6317 159.613 73.8675 159.018 73.2725C158.435 72.6658 157.554 72.3625 156.376 72.3625H152.806V78.645ZM189.934 91.56C187.706 91.56 185.757 91.0933 184.089 90.16C182.432 89.215 181.143 87.8267 180.221 85.995C179.3 84.1517 178.839 81.8825 178.839 79.1875C178.839 76.4225 179.3 74.1417 180.221 72.345C181.143 70.5367 182.432 69.195 184.089 68.32C185.757 67.4333 187.706 66.99 189.934 66.99C192.186 66.99 194.146 67.4508 195.814 68.3725C197.494 69.2942 198.795 70.6592 199.716 72.4675C200.638 74.2758 201.099 76.5158 201.099 79.1875C201.099 81.9292 200.638 84.2217 199.716 86.065C198.795 87.8967 197.494 89.2733 195.814 90.195C194.146 91.105 192.186 91.56 189.934 91.56ZM189.934 86.5375C191.567 86.5375 192.874 85.8958 193.854 84.6125C194.834 83.3175 195.324 81.4975 195.324 79.1525C195.324 76.9475 194.834 75.2092 193.854 73.9375C192.874 72.6542 191.567 72.0125 189.934 72.0125C188.347 72.0125 187.064 72.6542 186.084 73.9375C185.104 75.2092 184.614 76.9592 184.614 79.1875C184.614 81.5092 185.104 83.3175 186.084 84.6125C187.064 85.8958 188.347 86.5375 189.934 86.5375ZM214.984 67.515H222.999L228.196 80.045H227.759L232.956 67.515H240.656V91H235.021V74.2875H235.791L229.754 88.8125H226.131L220.129 74.3225H220.584V91H214.984V67.515ZM265.676 91.56C263.448 91.56 261.5 91.0933 259.831 90.16C258.175 89.215 256.885 87.8267 255.964 85.995C255.042 84.1517 254.581 81.8825 254.581 79.1875C254.581 76.4225 255.042 74.1417 255.964 72.345C256.885 70.5367 258.175 69.195 259.831 68.32C261.5 67.4333 263.448 66.99 265.676 66.99C267.928 66.99 269.888 67.4508 271.556 68.3725C273.236 69.2942 274.537 70.6592 275.459 72.4675C276.38 74.2758 276.841 76.5158 276.841 79.1875C276.841 81.9292 276.38 84.2217 275.459 86.065C274.537 87.8967 273.236 89.2733 271.556 90.195C269.888 91.105 267.928 91.56 265.676 91.56ZM265.676 86.5375C267.31 86.5375 268.616 85.8958 269.596 84.6125C270.576 83.3175 271.066 81.4975 271.066 79.1525C271.066 76.9475 270.576 75.2092 269.596 73.9375C268.616 72.6542 267.31 72.0125 265.676 72.0125C264.09 72.0125 262.806 72.6542 261.826 73.9375C260.846 75.2092 260.356 76.9592 260.356 79.1875C260.356 81.5092 260.846 83.3175 261.826 84.6125C262.806 85.8958 264.09 86.5375 265.676 86.5375Z" fill="#213140"/>
</svg>
